<?xml version="1.0" encoding="UTF-8"?>
<svg version="1.1" xmlns="http://www.w3.org/2000/svg" width="200" height="200">
<path d="M0 0 C66 0 132 0 200 0 C200 66 200 132 200 200 C134 200 68 200 0 200 C0 134 0 68 0 0 Z " fill="#3FCC5F" transform="translate(0,0)"/>
<path d="M0 0 C4.05997773 0.0292611 6.80745935 1.14697561 10.3125 3.25 C9.9825 5.56 9.6525 7.87 9.3125 10.25 C22.5125 10.25 35.7125 10.25 49.3125 10.25 C49.3125 17.51 49.3125 24.77 49.3125 32.25 C46.0125 32.25 42.7125 32.25 39.3125 32.25 C39.3125 35.22 39.3125 38.19 39.3125 41.25 C29.7425 41.25 20.1725 41.25 10.3125 41.25 C10.3125 45.21 10.3125 49.17 10.3125 53.25 C23.8425 52.92 37.3725 52.59 51.3125 52.25 C51.3125 56.21 51.3125 60.17 51.3125 64.25 C37.7825 64.25 24.2525 64.25 10.3125 64.25 C10.43081695 71.92354282 10.43081695 71.92354282 10.58276367 79.59643555 C10.59025635 80.558479 10.59774902 81.52052246 10.60546875 82.51171875 C10.6211792 83.49100342 10.63688965 84.47028809 10.65307617 85.47924805 C10.14314509 89.6277841 8.42876436 92.27326869 5.3125 95 C2.1193777 96.99570144 -0.46045287 97.37232918 -4.13671875 97.34765625 C-4.98427734 97.34443359 -5.83183594 97.34121094 -6.70507812 97.33789062 C-7.58615234 97.32951172 -8.46722656 97.32113281 -9.375 97.3125 C-10.26767578 97.30798828 -11.16035156 97.30347656 -12.08007812 97.29882812 C-14.28261987 97.28704983 -16.48502599 97.27060164 -18.6875 97.25 C-18.82027344 96.64671875 -18.95304687 96.0434375 -19.08984375 95.421875 C-19.26644531 94.62265625 -19.44304687 93.8234375 -19.625 93 C-19.79902344 92.21109375 -19.97304687 91.4221875 -20.15234375 90.609375 C-20.635056 88.48121297 -21.14913178 86.36467158 -21.6875 84.25 C-20.48351562 84.26160156 -19.27953125 84.27320313 -18.0390625 84.28515625 C-16.46354321 84.29453434 -14.88802225 84.30363452 -13.3125 84.3125 C-12.12140625 84.32506836 -12.12140625 84.32506836 -10.90625 84.33789062 C-6.66357778 84.48040151 -6.66357778 84.48040151 -2.6875 83.25 C-2.3575 76.98 -2.0275 70.71 -1.6875 64.25 C-15.8775 64.58 -30.0675 64.91 -44.6875 65.25 C-44.6875 60.96 -44.6875 56.67 -44.6875 52.25 C-30.4975 52.58 -16.3075 52.91 -1.6875 53.25 C-1.6875 49.29 -1.6875 45.33 -1.6875 41.25 C-11.5875 41.25 -21.4875 41.25 -31.6875 41.25 C-31.6875 38.61 -31.6875 35.97 -31.6875 33.25 C-35.3175 33.25 -38.9475 33.25 -42.6875 33.25 C-42.6875 25.66 -42.6875 18.07 -42.6875 10.25 C-29.8175 10.25 -16.9475 10.25 -3.6875 10.25 C-4.1825 5.795 -4.1825 5.795 -4.6875 1.25 C-3.6875 0.25 -3.6875 0.25 0 0 Z " fill="#F0FAF2" transform="translate(96.6875,50.75)"/>
<path d="M0 0 C20.46 0 40.92 0 62 0 C62 1.32 62 2.64 62 4 C52.43 4 42.86 4 33 4 C33 10.6 33 17.2 33 24 C46.53 24 60.06 24 74 24 C74 24.99 74 25.98 74 27 C60.47 27 46.94 27 33 27 C33.1578466 35.66103216 33.1578466 35.66103216 33.36035156 44.32104492 C33.3703418 45.40490479 33.38033203 46.48876465 33.390625 47.60546875 C33.41157227 48.71043701 33.43251953 49.81540527 33.45410156 50.95385742 C32.8967209 54.69280284 31.6060942 56.31666801 29 59 C25.93466836 60.53266582 22.73245728 60.10276471 19.375 60.0625 C18.66859375 60.05798828 17.9621875 60.05347656 17.234375 60.04882812 C15.48954725 60.03703875 13.744763 60.01910324 12 60 C11.67 58.68 11.34 57.36 11 56 C11.73605469 55.95101562 12.47210938 55.90203125 13.23046875 55.8515625 C14.20628906 55.77679688 15.18210937 55.70203125 16.1875 55.625 C17.63189453 55.52058594 17.63189453 55.52058594 19.10546875 55.4140625 C22.06766911 54.99031994 24.34780423 54.38498322 27 53 C27.99455909 50.01632274 28.19559632 47.7995808 28.31640625 44.67578125 C28.35451416 43.74934814 28.39262207 42.82291504 28.43188477 41.8684082 C28.47498779 40.6949585 28.51809082 39.52150879 28.5625 38.3125 C28.706875 34.579375 28.85125 30.84625 29 27 C15.14 27 1.28 27 -13 27 C-13 26.01 -13 25.02 -13 24 C0.86 24 14.72 24 29 24 C29 17.4 29 10.8 29 4 C19.43 4 9.86 4 0 4 C0 2.68 0 1.36 0 0 Z " fill="#40CC60" transform="translate(70,84)"/>
<path d="M0 0 C22.44 0 44.88 0 68 0 C68 2.64 68 5.28 68 8 C56.41615498 9.11801868 44.87482537 9.15375284 33.24780273 9.13037109 C30.04471189 9.12497001 26.8417587 9.13036681 23.63867188 9.13671875 C21.58333303 9.13605858 19.52799426 9.13477869 17.47265625 9.1328125 C16.05062645 9.13584885 16.05062645 9.13584885 14.59986877 9.13894653 C9.6252311 9.12143109 4.90395562 8.84741026 0 8 C0 5.36 0 2.72 0 0 Z " fill="#4BCF69" transform="translate(66,72)"/>
<path d="M0 0 C1.65 0 3.3 0 5 0 C4.67 2.97 4.34 5.94 4 9 C17.53 9 31.06 9 45 9 C45 13.62 45 18.24 45 23 C43.68 23 42.36 23 41 23 C41 19.37 41 15.74 41 12 C15.92 12 -9.16 12 -35 12 C-35 15.96 -35 19.92 -35 24 C-36.32 24 -37.64 24 -39 24 C-39 19.05 -39 14.1 -39 9 C-26.13 9 -13.26 9 0 9 C0 6.03 0 3.06 0 0 Z " fill="#43CD63" transform="translate(97,56)"/>
</svg>
